<svg width="669" height="161" viewBox="0 0 669 161" fill="none" xmlns="http://www.w3.org/2000/svg">
<g filter="url(#filter0_d_9_23)">
<path d="M25 59C25 28.6243 49.6243 4 80 4H591C621.376 4 646 28.6243 646 59V98C646 128.376 621.376 153 591 153H80C49.6243 153 25 128.376 25 98V59Z" fill="#FFFFFA"/>
<path d="M61 118.25C87.2335 118.25 108.5 94.1853 108.5 64.5C108.5 34.8147 87.2335 10.75 61 10.75C34.7665 10.75 13.5 34.8147 13.5 64.5C13.5 94.1853 34.7665 118.25 61 118.25Z" fill="#FFFFFA"/>
<path d="M608 118.25C634.234 118.25 655.5 94.1853 655.5 64.5C655.5 34.8147 634.234 10.75 608 10.75C581.766 10.75 560.5 34.8147 560.5 64.5C560.5 94.1853 581.766 118.25 608 118.25Z" fill="#FFFFFA"/>
</g>
<defs>
<filter id="filter0_d_9_23" x="0" y="0" width="669" height="161" filterUnits="userSpaceOnUse" color-interpolation-filters="sRGB">
<feFlood flood-opacity="0" result="BackgroundImageFix"/>
<feColorMatrix in="SourceAlpha" type="matrix" values="0 0 0 0 0 0 0 0 0 0 0 0 0 0 0 0 0 0 127 0" result="hardAlpha"/>
<feOffset dy="4"/>
<feGaussianBlur stdDeviation="2"/>
<feComposite in2="hardAlpha" operator="out"/>
<feColorMatrix type="matrix" values="0 0 0 0 0 0 0 0 0 0 0 0 0 0 0 0 0 0 0.25 0"/>
<feBlend mode="normal" in2="BackgroundImageFix" result="effect1_dropShadow_9_23"/>
<feBlend mode="normal" in="SourceGraphic" in2="effect1_dropShadow_9_23" result="shape"/>
</filter>
</defs>
</svg>
